<mxfile host="app.diagrams.net" modified="2020-12-10T09:45:35.440Z" agent="5.0 (Macintosh)" etag="_wPb7I5nDyzmaKroal0V" version="14.0.0" type="github">
  <diagram id="Wk2X4eaCf2q6rPjU3gQA" name="Page-1">
    <mxGraphModel dx="1062" dy="782" grid="1" gridSize="10" guides="1" tooltips="1" connect="1" arrows="1" fold="1" page="1" pageScale="1" pageWidth="827" pageHeight="1169" math="0" shadow="0">
      <root>
        <mxCell id="0" />
        <mxCell id="1" parent="0" />
        <mxCell id="IMuH_rGGgQrwzlqtxlmx-8" value="" style="rounded=0;whiteSpace=wrap;html=1;" vertex="1" parent="1">
          <mxGeometry x="220" y="520" width="300" height="176" as="geometry" />
        </mxCell>
        <mxCell id="2zQYPfYKcv4Nny_wHJqH-2" value="GUI" style="whiteSpace=wrap;html=1;aspect=fixed;" parent="1" vertex="1">
          <mxGeometry x="120" y="200" width="80" height="80" as="geometry" />
        </mxCell>
        <mxCell id="2zQYPfYKcv4Nny_wHJqH-3" value="PETS" style="whiteSpace=wrap;html=1;aspect=fixed;" parent="1" vertex="1">
          <mxGeometry x="280" y="200" width="80" height="80" as="geometry" />
        </mxCell>
        <mxCell id="2zQYPfYKcv4Nny_wHJqH-4" value="DOGS" style="whiteSpace=wrap;html=1;aspect=fixed;" parent="1" vertex="1">
          <mxGeometry x="440" y="80" width="80" height="80" as="geometry" />
        </mxCell>
        <mxCell id="2zQYPfYKcv4Nny_wHJqH-5" value="CATS" style="whiteSpace=wrap;html=1;aspect=fixed;" parent="1" vertex="1">
          <mxGeometry x="440" y="200" width="80" height="80" as="geometry" />
        </mxCell>
        <mxCell id="2zQYPfYKcv4Nny_wHJqH-6" value="FISHES" style="whiteSpace=wrap;html=1;aspect=fixed;" parent="1" vertex="1">
          <mxGeometry x="440" y="320" width="80" height="80" as="geometry" />
        </mxCell>
        <mxCell id="2zQYPfYKcv4Nny_wHJqH-9" value="" style="endArrow=classic;html=1;exitX=1;exitY=0.5;exitDx=0;exitDy=0;entryX=0;entryY=0.5;entryDx=0;entryDy=0;" parent="1" source="2zQYPfYKcv4Nny_wHJqH-2" target="2zQYPfYKcv4Nny_wHJqH-3" edge="1">
          <mxGeometry width="50" height="50" relative="1" as="geometry">
            <mxPoint x="200" y="450" as="sourcePoint" />
            <mxPoint x="250" y="400" as="targetPoint" />
          </mxGeometry>
        </mxCell>
        <mxCell id="2zQYPfYKcv4Nny_wHJqH-10" value="" style="endArrow=classic;html=1;exitX=1;exitY=0.25;exitDx=0;exitDy=0;entryX=0;entryY=0.5;entryDx=0;entryDy=0;" parent="1" source="2zQYPfYKcv4Nny_wHJqH-3" target="2zQYPfYKcv4Nny_wHJqH-4" edge="1">
          <mxGeometry width="50" height="50" relative="1" as="geometry">
            <mxPoint x="360" y="200" as="sourcePoint" />
            <mxPoint x="410" y="150" as="targetPoint" />
          </mxGeometry>
        </mxCell>
        <mxCell id="2zQYPfYKcv4Nny_wHJqH-11" value="" style="endArrow=classic;html=1;exitX=1;exitY=0.5;exitDx=0;exitDy=0;entryX=0;entryY=0.5;entryDx=0;entryDy=0;" parent="1" source="2zQYPfYKcv4Nny_wHJqH-3" target="2zQYPfYKcv4Nny_wHJqH-5" edge="1">
          <mxGeometry width="50" height="50" relative="1" as="geometry">
            <mxPoint x="250" y="520" as="sourcePoint" />
            <mxPoint x="300" y="470" as="targetPoint" />
          </mxGeometry>
        </mxCell>
        <mxCell id="2zQYPfYKcv4Nny_wHJqH-12" value="" style="endArrow=classic;html=1;exitX=1;exitY=0.75;exitDx=0;exitDy=0;entryX=0;entryY=0.5;entryDx=0;entryDy=0;" parent="1" source="2zQYPfYKcv4Nny_wHJqH-3" target="2zQYPfYKcv4Nny_wHJqH-6" edge="1">
          <mxGeometry width="50" height="50" relative="1" as="geometry">
            <mxPoint x="360" y="400" as="sourcePoint" />
            <mxPoint x="410" y="350" as="targetPoint" />
          </mxGeometry>
        </mxCell>
        <mxCell id="IMuH_rGGgQrwzlqtxlmx-1" value="" style="html=1;dashed=0;whitespace=wrap;fillColor=#2875E2;strokeColor=#ffffff;points=[[0.005,0.63,0],[0.1,0.2,0],[0.9,0.2,0],[0.5,0,0],[0.995,0.63,0],[0.72,0.99,0],[0.5,1,0],[0.28,0.99,0]];shape=mxgraph.kubernetes.icon;prIcon=cm" vertex="1" parent="1">
          <mxGeometry x="370" y="631" width="50" height="48" as="geometry" />
        </mxCell>
        <mxCell id="IMuH_rGGgQrwzlqtxlmx-12" style="edgeStyle=orthogonalEdgeStyle;rounded=0;orthogonalLoop=1;jettySize=auto;html=1;exitX=0.995;exitY=0.63;exitDx=0;exitDy=0;exitPerimeter=0;" edge="1" parent="1" source="IMuH_rGGgQrwzlqtxlmx-3" target="IMuH_rGGgQrwzlqtxlmx-6">
          <mxGeometry relative="1" as="geometry" />
        </mxCell>
        <mxCell id="IMuH_rGGgQrwzlqtxlmx-13" style="edgeStyle=orthogonalEdgeStyle;rounded=0;orthogonalLoop=1;jettySize=auto;html=1;exitX=0.005;exitY=0.63;exitDx=0;exitDy=0;exitPerimeter=0;entryX=0.5;entryY=0;entryDx=0;entryDy=0;entryPerimeter=0;" edge="1" parent="1" source="IMuH_rGGgQrwzlqtxlmx-3" target="IMuH_rGGgQrwzlqtxlmx-1">
          <mxGeometry relative="1" as="geometry" />
        </mxCell>
        <mxCell id="IMuH_rGGgQrwzlqtxlmx-3" value="" style="html=1;dashed=0;whitespace=wrap;fillColor=#2875E2;strokeColor=#ffffff;points=[[0.005,0.63,0],[0.1,0.2,0],[0.9,0.2,0],[0.5,0,0],[0.995,0.63,0],[0.72,0.99,0],[0.5,1,0],[0.28,0.99,0]];shape=mxgraph.kubernetes.icon;prIcon=deploy" vertex="1" parent="1">
          <mxGeometry x="400" y="576" width="50" height="48" as="geometry" />
        </mxCell>
        <mxCell id="IMuH_rGGgQrwzlqtxlmx-14" style="edgeStyle=orthogonalEdgeStyle;rounded=0;orthogonalLoop=1;jettySize=auto;html=1;entryX=0.5;entryY=0;entryDx=0;entryDy=0;entryPerimeter=0;" edge="1" parent="1" source="IMuH_rGGgQrwzlqtxlmx-4" target="IMuH_rGGgQrwzlqtxlmx-3">
          <mxGeometry relative="1" as="geometry" />
        </mxCell>
        <mxCell id="IMuH_rGGgQrwzlqtxlmx-4" value="" style="html=1;dashed=0;whitespace=wrap;fillColor=#2875E2;strokeColor=#ffffff;points=[[0.005,0.63,0],[0.1,0.2,0],[0.9,0.2,0],[0.5,0,0],[0.995,0.63,0],[0.72,0.99,0],[0.5,1,0],[0.28,0.99,0]];shape=mxgraph.kubernetes.icon;prIcon=svc" vertex="1" parent="1">
          <mxGeometry x="325" y="528" width="50" height="48" as="geometry" />
        </mxCell>
        <mxCell id="IMuH_rGGgQrwzlqtxlmx-15" style="edgeStyle=orthogonalEdgeStyle;rounded=0;orthogonalLoop=1;jettySize=auto;html=1;entryX=0.005;entryY=0.63;entryDx=0;entryDy=0;entryPerimeter=0;" edge="1" parent="1" source="IMuH_rGGgQrwzlqtxlmx-5" target="IMuH_rGGgQrwzlqtxlmx-4">
          <mxGeometry relative="1" as="geometry" />
        </mxCell>
        <mxCell id="IMuH_rGGgQrwzlqtxlmx-5" value="" style="shape=image;html=1;verticalAlign=top;verticalLabelPosition=bottom;labelBackgroundColor=#ffffff;imageAspect=0;aspect=fixed;image=https://cdn1.iconfinder.com/data/icons/hex-ico/128/ingress.png" vertex="1" parent="1">
          <mxGeometry x="230" y="586" width="55" height="55" as="geometry" />
        </mxCell>
        <mxCell id="IMuH_rGGgQrwzlqtxlmx-6" value="" style="html=1;dashed=0;whitespace=wrap;fillColor=#2875E2;strokeColor=#ffffff;points=[[0.005,0.63,0],[0.1,0.2,0],[0.9,0.2,0],[0.5,0,0],[0.995,0.63,0],[0.72,0.99,0],[0.5,1,0],[0.28,0.99,0]];shape=mxgraph.kubernetes.icon;prIcon=secret" vertex="1" parent="1">
          <mxGeometry x="450" y="631" width="50" height="48" as="geometry" />
        </mxCell>
      </root>
    </mxGraphModel>
  </diagram>
</mxfile>
